<?xml version="1.0" encoding="utf-8"?>
<!-- Generator: Adobe Illustrator 18.1.1, SVG Export Plug-In . SVG Version: 6.00 Build 0)  -->
<svg version="1.1" id="svg2208" xmlns="http://www.w3.org/2000/svg" xmlns:xlink="http://www.w3.org/1999/xlink" x="0px" y="0px"
	 viewBox="212.2 62.6 259.9 22.3" enable-background="new 212.2 62.6 259.9 22.3" xml:space="preserve">
<path fill="#F4792A" d="M213.6,73.5c0,3.9-0.5,7.7-1.3,11.4l15.6-11.4l-15.5-10.9C213.1,66.1,213.6,69.7,213.6,73.5z"/>
<g>
	<path d="M238.9,79.1c0,0.4,0,0.5-0.1,0.6c-0.1,0.1-0.2,0.1-0.6,0.1h-0.5c-0.4,0-0.4,0-0.6-0.1c-0.1-0.1-0.1-0.1-0.1-0.6V68.4
		c0-0.6,0.1-0.7,0.7-0.7h1.4c1.8,0,2.6,0.2,3.4,0.8c0.8,0.6,1.3,1.7,1.3,2.8c0,1-0.4,1.9-1,2.5c-0.7,0.7-1.7,1-3,1h-0.8V79.1z
		 M239.6,73.2c0.9,0,1.5-0.1,1.9-0.5c0.4-0.3,0.6-0.9,0.6-1.4s-0.3-1.1-0.7-1.4c-0.4-0.3-1-0.4-1.9-0.4h-0.6v3.8H239.6z"/>
	<path d="M252.8,78.9c0.2,0.2,0.2,0.4,0.2,0.5c0,0.3-0.2,0.4-0.6,0.4h-0.7c-0.5,0-0.5,0-0.8-0.4l-3.2-4.5h-0.3v4.2
		c0,0.4,0,0.5-0.1,0.6c-0.1,0.1-0.2,0.1-0.6,0.1h-0.5c-0.4,0-0.4,0-0.6-0.1c-0.1-0.1-0.1-0.1-0.1-0.6V68.4c0-0.6,0.1-0.7,0.7-0.7
		h1.5c1.5,0,2.4,0.2,3.2,0.7c0.9,0.6,1.4,1.7,1.4,2.8c0,1.7-1.1,3-2.7,3.4L252.8,78.9z M248.1,73.3c0.8,0,1.4-0.1,1.8-0.4
		c0.5-0.3,0.8-0.9,0.8-1.5c0-0.6-0.3-1.1-0.7-1.4c-0.4-0.3-1-0.4-1.8-0.4h-0.6v3.8H248.1z"/>
	<path d="M267,73.8c0,3.5-2.8,6.2-6.3,6.2c-1.7,0-3.5-0.8-4.7-2.1c-1-1.1-1.5-2.5-1.5-4.2c0-3.4,2.9-6.2,6.3-6.2
		C264.2,67.5,267,70.3,267,73.8z M256.2,73.9c0,2.4,2,4.4,4.5,4.4c2.5,0,4.4-2,4.4-4.5c0-2.6-1.9-4.5-4.5-4.5
		C258.2,69.2,256.2,71.2,256.2,73.9z"/>
	<path d="M272,79.1c0,0.4,0,0.5-0.1,0.6c-0.1,0.1-0.2,0.1-0.6,0.1h-0.5c-0.4,0-0.4,0-0.6-0.1c-0.1-0.1-0.1-0.1-0.1-0.6v-9.6h-2.1
		c-0.4,0-0.5,0-0.6-0.1c-0.1-0.1-0.1-0.2-0.1-0.6v-0.4c0-0.4,0-0.4,0.1-0.6c0.1-0.1,0.1-0.1,0.6-0.1h6c0.4,0,0.5,0,0.6,0.1
		c0.1,0.1,0.1,0.2,0.1,0.6v0.4c0,0.4,0,0.4-0.1,0.6c-0.1,0.1-0.1,0.1-0.6,0.1H272V79.1z"/>
	<path d="M278.2,72.4h4c0.4,0,0.5,0,0.6,0.1c0.1,0.1,0.1,0.2,0.1,0.6v0.4c0,0.4,0,0.4-0.1,0.6c-0.1,0.1-0.1,0.1-0.6,0.1h-4v4h4.1
		c0.4,0,0.5,0,0.6,0.1c0.1,0.1,0.1,0.2,0.1,0.6v0.4c0,0.6-0.1,0.7-0.7,0.7h-5.3c-0.6,0-0.7-0.1-0.7-0.7V68.4c0-0.6,0.1-0.7,0.7-0.7
		h5.3c0.4,0,0.5,0,0.6,0.1C283,68,283,68,283,68.4v0.4c0,0.6-0.1,0.7-0.7,0.7h-4.1V72.4z"/>
	<path d="M294.3,69.5c0,0.5-0.1,0.7-0.3,0.7c-0.1,0-0.1,0-0.9-0.4c-0.7-0.3-1.3-0.5-2-0.5c-2.5,0-4.4,2-4.4,4.6
		c0,2.5,1.9,4.5,4.4,4.5c1,0,1.6-0.2,2.6-0.9c0.1-0.1,0.2-0.1,0.3-0.1c0.2,0,0.3,0.2,0.3,0.7v0.6c0,0.4,0,0.5-0.1,0.5
		c-0.1,0.1-0.4,0.3-0.8,0.4c-0.7,0.3-1.5,0.4-2.3,0.4c-3.4,0-6.2-2.8-6.2-6.2c0-3.5,2.8-6.3,6.3-6.3c1.1,0,2.6,0.4,3,0.8
		c0.1,0.1,0.1,0.1,0.1,0.6V69.5z M290.2,83.4c-0.3,0.3-0.3,0.3-0.5,0.3c-0.1,0-0.2-0.1-0.4-0.2l-0.1,0c-0.3-0.2-0.4-0.3-0.4-0.5
		c0-0.1,0.1-0.2,0.2-0.4l0.9-1.4c0.2-0.3,0.3-0.4,0.5-0.4c0.1,0,0.2,0,0.4,0.1l0.3,0.1c0.4,0.2,0.5,0.3,0.5,0.5c0,0.1,0,0.2-0.3,0.5
		L290.2,83.4z"/>
	<path d="M298.5,76.9l-1.1,2.4l-0.1,0.2c-0.1,0.3-0.2,0.3-0.7,0.3h-0.5c-0.5,0-0.7-0.1-0.7-0.4c0-0.1,0-0.1,0.1-0.5l5.1-10.9
		c0.2-0.4,0.3-0.5,0.5-0.5c0.2,0,0.3,0.1,0.5,0.5l4.9,10.9c0.1,0.3,0.1,0.3,0.1,0.4c0,0.1-0.1,0.3-0.2,0.3c-0.1,0.1-0.1,0.1-0.5,0.1
		h-0.6c-0.5,0-0.5,0-0.7-0.5l-1.1-2.4H298.5z M303.9,64.8c0.1,0.1,0.2,0.2,0.2,0.3c0,0.1-0.1,0.3-0.3,0.6c-0.4,0.6-1,0.8-1.6,0.8
		c-0.4,0-0.6-0.1-1.4-0.4c-0.5-0.3-0.8-0.4-1.1-0.4c-0.2,0-0.4,0.1-0.6,0.4c-0.1,0.1-0.2,0.2-0.3,0.2c-0.1,0-0.2,0-0.2-0.1l-0.4-0.3
		c-0.1-0.1-0.2-0.2-0.2-0.3c0-0.1,0.1-0.3,0.3-0.6c0.4-0.5,1-0.8,1.5-0.8c0.4,0,0.9,0.1,1.4,0.4c0.8,0.4,0.8,0.4,1,0.4
		c0.3,0,0.5-0.1,0.7-0.5c0.1-0.1,0.2-0.2,0.3-0.2c0.1,0,0.2,0,0.2,0.1L303.9,64.8z M301.1,71.1l-1.9,4.1h3.7L301.1,71.1z"/>
	<path d="M319.7,73.8c0,3.5-2.8,6.2-6.3,6.2c-1.7,0-3.5-0.8-4.7-2.1c-1-1.1-1.5-2.5-1.5-4.2c0-3.4,2.9-6.2,6.3-6.2
		C316.9,67.5,319.7,70.3,319.7,73.8z M309,73.9c0,2.4,2,4.4,4.5,4.4c2.5,0,4.4-2,4.4-4.5c0-2.6-1.9-4.5-4.5-4.5
		C310.9,69.2,309,71.2,309,73.9z"/>
	<path d="M328.4,76.9l-1.1,2.4l-0.1,0.2c-0.1,0.3-0.2,0.3-0.7,0.3H326c-0.5,0-0.7-0.1-0.7-0.4c0-0.1,0-0.1,0.1-0.5l5.1-10.9
		c0.2-0.4,0.3-0.5,0.5-0.5c0.2,0,0.3,0.1,0.5,0.5l4.9,10.9c0.1,0.3,0.1,0.3,0.1,0.4c0,0.1-0.1,0.3-0.2,0.3c-0.1,0.1-0.1,0.1-0.5,0.1
		h-0.6c-0.5,0-0.5,0-0.7-0.5l-1.1-2.4H328.4z M331,71.1l-1.9,4.1h3.7L331,71.1z"/>
	<path d="M347,68.4c0-0.4,0-0.5,0.1-0.6c0.1-0.1,0.2-0.1,0.6-0.1h0.5c0.4,0,0.4,0,0.6,0.1c0.1,0.1,0.1,0.1,0.1,0.6v10.8
		c0,0.5-0.1,0.7-0.4,0.7c-0.1,0-0.2-0.1-0.5-0.3l-7.9-8.2v7.7c0,0.4,0,0.5-0.1,0.6c-0.1,0.1-0.2,0.1-0.6,0.1h-0.5
		c-0.4,0-0.4,0-0.6-0.1c-0.1-0.1-0.1-0.1-0.1-0.6V68.2c0-0.5,0.1-0.7,0.4-0.7c0.1,0,0.2,0.1,0.5,0.3l7.9,8.2V68.4z"/>
	<path d="M353.5,79.1c0,0.4,0,0.5-0.1,0.6c-0.1,0.1-0.2,0.1-0.6,0.1h-0.5c-0.4,0-0.4,0-0.6-0.1c-0.1-0.1-0.1-0.1-0.1-0.6V68.4
		c0-0.4,0-0.5,0.1-0.6c0.1-0.1,0.2-0.1,0.6-0.1h0.5c0.4,0,0.4,0,0.6,0.1c0.1,0.1,0.1,0.1,0.1,0.6V79.1z"/>
	<path d="M366.3,68.2c0.2-0.4,0.3-0.5,0.5-0.5c0.3,0,0.4,0.1,0.5,0.6l1.9,10.7c0,0.2,0,0.3,0,0.3c0,0.3-0.2,0.4-0.6,0.4h-0.5
		c-0.6,0-0.6,0-0.7-0.6l-1.1-6.6l-3.1,6.8c-0.2,0.4-0.3,0.5-0.5,0.5c-0.2,0-0.3-0.1-0.5-0.5l-3-6.8l-1.2,6.7
		c-0.1,0.6-0.1,0.6-0.7,0.6h-0.5c-0.5,0-0.6-0.1-0.6-0.4c0-0.1,0-0.2,0.1-0.4l2.1-10.7c0.1-0.5,0.2-0.6,0.4-0.6
		c0.2,0,0.3,0.1,0.5,0.5l3.5,7.9L366.3,68.2z"/>
	<path d="M373.7,76.9l-1.1,2.4l-0.1,0.2c-0.1,0.3-0.2,0.3-0.7,0.3h-0.5c-0.5,0-0.7-0.1-0.7-0.4c0-0.1,0-0.1,0.1-0.5l5.1-10.9
		c0.2-0.4,0.3-0.5,0.5-0.5c0.2,0,0.3,0.1,0.5,0.5l4.9,10.9c0.1,0.3,0.1,0.3,0.1,0.4c0,0.1-0.1,0.3-0.2,0.3c-0.1,0.1-0.1,0.1-0.5,0.1
		h-0.6c-0.5,0-0.5,0-0.7-0.5l-1.1-2.4H373.7z M376.3,71.1l-1.9,4.1h3.7L376.3,71.1z"/>
	<path d="M388.3,78.1c0.4,0,0.5,0,0.6,0.1c0.1,0.1,0.1,0.2,0.1,0.6v0.4c0,0.4,0,0.4-0.1,0.6c-0.1,0.1-0.1,0.1-0.6,0.1h-4
		c-0.6,0-0.7-0.1-0.7-0.7V68.4c0-0.4,0-0.5,0.1-0.6c0.1-0.1,0.2-0.1,0.6-0.1h0.5c0.4,0,0.4,0,0.6,0.1c0.1,0.1,0.1,0.1,0.1,0.6v9.6
		H388.3z"/>
	<path d="M405,68.2c0.2-0.4,0.3-0.5,0.5-0.5c0.3,0,0.4,0.1,0.5,0.6l1.9,10.7c0,0.2,0,0.3,0,0.3c0,0.3-0.2,0.4-0.6,0.4h-0.5
		c-0.6,0-0.6,0-0.7-0.6l-1.1-6.6l-3.1,6.8c-0.2,0.4-0.3,0.5-0.5,0.5c-0.2,0-0.3-0.1-0.5-0.5l-3-6.8l-1.2,6.7
		c-0.1,0.6-0.1,0.6-0.7,0.6h-0.5c-0.5,0-0.6-0.1-0.6-0.4c0-0.1,0-0.2,0.1-0.4l2.1-10.7c0.1-0.5,0.2-0.6,0.4-0.6
		c0.2,0,0.3,0.1,0.5,0.5l3.5,7.9L405,68.2z"/>
	<path d="M412.3,75c0,1.1,0.1,1.6,0.4,2.1c0.4,0.8,1.3,1.2,2.3,1.2c0.9,0,1.8-0.5,2.2-1.2c0.3-0.5,0.4-1,0.4-2.1v-6.6
		c0-0.4,0-0.5,0.1-0.6c0.1-0.1,0.2-0.1,0.6-0.1h0.5c0.4,0,0.4,0,0.6,0.1c0.1,0.1,0.1,0.1,0.1,0.6v7.1c0,1.2-0.3,2-0.9,2.8
		c-0.8,1.1-2.2,1.7-3.5,1.7c-1.4,0-2.7-0.6-3.5-1.7c-0.6-0.8-0.9-1.7-0.9-2.8v-7.1c0-0.4,0-0.5,0.1-0.6c0.1-0.1,0.2-0.1,0.6-0.1h0.5
		c0.4,0,0.4,0,0.6,0.1c0.1,0.1,0.1,0.1,0.1,0.6V75z"/>
	<path d="M430.9,68.4c0-0.4,0-0.5,0.1-0.6c0.1-0.1,0.2-0.1,0.6-0.1h0.5c0.4,0,0.4,0,0.6,0.1c0.1,0.1,0.1,0.1,0.1,0.6v10.8
		c0,0.5-0.1,0.7-0.4,0.7c-0.1,0-0.2-0.1-0.5-0.3l-7.9-8.2v7.7c0,0.4,0,0.5-0.1,0.6c-0.1,0.1-0.2,0.1-0.6,0.1h-0.5
		c-0.4,0-0.4,0-0.6-0.1c-0.1-0.1-0.1-0.1-0.1-0.6V68.2c0-0.5,0.1-0.7,0.4-0.7c0.1,0,0.2,0.1,0.5,0.3l7.9,8.2V68.4z"/>
	<path d="M435.6,68.4c0-0.6,0.1-0.7,0.7-0.7h1.9c2.1,0,3.3,0.3,4.4,1.2c1.5,1.1,2.3,2.8,2.3,4.8c0,2.1-0.8,3.7-2.4,4.9
		c-1.2,0.9-2.3,1.2-4.4,1.2h-1.8c-0.6,0-0.7-0.1-0.7-0.7V68.4z M438.3,78.1c1.5,0,2.4-0.3,3.2-0.9c1-0.8,1.6-2,1.6-3.4
		c0-1.4-0.6-2.7-1.6-3.5c-0.8-0.6-1.7-0.8-3.2-0.8h-0.8v8.6H438.3z"/>
	<path d="M449,79.1c0,0.4,0,0.5-0.1,0.6c-0.1,0.1-0.2,0.1-0.6,0.1h-0.5c-0.4,0-0.4,0-0.6-0.1c-0.1-0.1-0.1-0.1-0.1-0.6V68.4
		c0-0.4,0-0.5,0.1-0.6c0.1-0.1,0.2-0.1,0.6-0.1h0.5c0.4,0,0.4,0,0.6,0.1C449,68,449,68,449,68.4V79.1z"/>
	<path d="M453.8,76.9l-1.1,2.4l-0.1,0.2c-0.1,0.3-0.2,0.3-0.7,0.3h-0.5c-0.5,0-0.7-0.1-0.7-0.4c0-0.1,0-0.1,0.1-0.5l5.1-10.9
		c0.2-0.4,0.3-0.5,0.5-0.5c0.2,0,0.3,0.1,0.5,0.5l4.9,10.9c0.1,0.3,0.1,0.3,0.1,0.4c0,0.1-0.1,0.3-0.2,0.3c-0.1,0.1-0.1,0.1-0.5,0.1
		h-0.6c-0.5,0-0.5,0-0.7-0.5l-1.1-2.4H453.8z M456.4,71.1l-1.9,4.1h3.7L456.4,71.1z"/>
	<path d="M468.3,78.1c0.4,0,0.5,0,0.6,0.1c0.1,0.1,0.1,0.2,0.1,0.6v0.4c0,0.4,0,0.4-0.1,0.6c-0.1,0.1-0.1,0.1-0.6,0.1h-4
		c-0.6,0-0.7-0.1-0.7-0.7V68.4c0-0.4,0-0.5,0.1-0.6c0.1-0.1,0.2-0.1,0.6-0.1h0.5c0.4,0,0.4,0,0.6,0.1c0.1,0.1,0.1,0.1,0.1,0.6v9.6
		H468.3z"/>
</g>
</svg>
